<svg width="250"
    height="209"
    viewBox="0 0 129 108"
    fill="none"
    xmlns="http://www.w3.org/2000/svg">
    <!--<mask
        id="mask0_781_327"
        style="mask-type:alpha"
        x="0"
        y="0"
        width="129"
        height="108">
        <rect
            width="128.545"
            height="108"
            fill="#D9D9D9" />
    </mask>-->
    <g>
        <!--<path
            d="M136.381 -94.6619H-7.16119V151.367H136.381V-94.6619Z"
            fill="#E5E5E5" />
        <path
            d="M106.618 66.3738L103.703 72.7126L119.508 82.4302L122.423 76.0915L106.618 66.3738Z"
            fill="#D6E7B8" />
        <path
            d="M124.051 76.5279L121.137 82.8666L126.984 86.4619L129.899 80.1231L124.051 76.5279Z"
            fill="#D6E7B8" />
        <path
            d="M130.533 80.0192L126.852 88.0245L138.756 95.3436L142.437 87.3383L130.533 80.0192Z"
            fill="#D6E7B8" />
        <path
            d="M132.086 107.226C131.718 107.998 131.221 108.678 130.625 109.228C130.029 109.777 129.344 110.185 128.611 110.429C127.878 110.672 127.111 110.745 126.353 110.645C125.596 110.544 124.863 110.272 124.196 109.843L105.137 97.6232C104.47 97.1966 103.882 96.6219 103.407 95.9322C102.933 95.2424 102.58 94.451 102.37 93.6035C102.161 92.7559 102.098 91.8688 102.185 90.9929C102.272 90.1171 102.508 89.2698 102.879 88.4996V88.4996C103.248 87.7286 103.745 87.0494 104.342 86.5008C104.939 85.9522 105.623 85.5449 106.356 85.3024C107.088 85.0598 107.855 84.9867 108.613 85.0872C109.37 85.1877 110.103 85.4598 110.769 85.888L129.828 98.1079C130.495 98.5339 131.083 99.108 131.557 99.7973C132.032 100.487 132.384 101.277 132.594 102.125C132.804 102.972 132.867 103.858 132.78 104.734C132.693 105.609 132.457 106.456 132.086 107.226V107.226Z"
            fill="#D6E7B8" />
        <path
            d="M-6.41646 91.3395C-5.89375 91.6417 38.852 121.048 38.852 121.048L42.3482 129.237L35.8834 151.475C35.8834 151.475 -8.16211 154.406 -8.68975 152.787C-9.21738 151.167 -14.3705 118.003 -14.2817 117.114C-14.193 116.224 -6.41646 91.3395 -6.41646 91.3395Z"
            fill="#D6E7B8" />
        <path
            d="M118.949 150.233C118.949 150.233 116.656 147.804 116.592 147.576C116.528 147.348 116.656 144.468 116.656 144.468C116.656 144.468 117.149 137.928 122.357 137.95C123.599 137.95 123.964 138.418 125.73 143.242C125.943 143.857 126.296 144.394 126.752 144.796C127.208 145.198 127.749 145.449 128.319 145.523C129.305 145.62 130.365 145.152 131.075 143.117C131.285 142.49 131.342 141.808 131.24 141.146C131.137 140.484 130.879 139.868 130.493 139.365L126.218 133.662C125.593 132.826 125.215 131.782 125.139 130.681C125.063 129.579 125.292 128.478 125.794 127.538L138.418 103.874L140.513 147.382C140.513 147.382 137.239 154.732 135.73 153.974C134.221 153.215 118.949 150.233 118.949 150.233Z"
            fill="#D6E7B8" />
        <path
            d="M64.1882 105.356L66.4467 104.637L75.0665 110.397L70.9982 119.321L72.8721 120.404L72.0535 122.485L60.6476 114.719L64.1882 105.356Z"
            fill="#D6E7B8" />
        <path
            d="M72.325 90.4273C72.325 90.4273 76.5214 76.126 78.8341 75.9778C80.1298 76.0816 81.3832 76.5536 82.4832 77.352C83.3189 77.9829 83.919 78.9538 84.1647 80.0723C84.4104 81.1908 84.2837 82.3752 83.8097 83.3907L81.3836 88.6082C80.7901 89.9249 79.8473 90.9869 78.6936 91.6386C77.5399 92.2903 76.2359 92.4972 74.973 92.2292C73.93 92.0216 72.9884 91.3808 72.325 90.4273V90.4273Z"
            fill="#D6E7B8" />
        <path
            d="M84.0169 64.9614L82.3748 69.5061L86.7685 71.3992L91.4877 67.5388L93.9779 69.4319L97.6467 68.2174L100.596 64.049L99.7474 62.1559L84.0169 64.9614Z"
            fill="#D6E7B8" />
        <path
            d="M92.6859 51.8231L90.5013 50.2037L111.129 0.987643L112.79 0.685425L114.886 3.81595L111.479 7.35705L92.6859 51.8231Z"
            fill="#D6E7B8" />
        <path
            d="M101.222 114.987C102.845 115.482 104.547 115.525 106.187 115.112C107.316 114.888 108.429 114.566 109.516 114.149C110.072 114.006 110.565 113.638 110.907 113.111C111.341 112.256 110.862 111.098 110.128 110.591C109.349 110.163 108.486 109.984 107.627 110.072C106.771 110.157 105.909 109.999 105.117 109.61C104.102 108.983 103.589 107.688 102.652 106.947C102.159 106.589 101.605 106.358 101.028 106.271C100.451 106.183 99.8645 106.241 99.3084 106.439C97.262 107.141 97.2127 110.528 98.1348 112.307C98.8482 113.604 99.9455 114.557 101.222 114.987V114.987Z"
            fill="#D6E7B8" />-->
        <g opacity="0.5">
            <path
                d="M-6.30801 92.7775L9.29431 102.779L13.9444 108.014L13.5549 110.437L6.6709 125.896"
                stroke="#00601B"
                stroke-width="0.52"
                stroke-linecap="round"
                stroke-linejoin="round"
                stroke-dasharray="2.08 2.08" />
            <path
                d="M110.956 -26.5989L99.4168 6.85041"
                stroke="#00601B"
                stroke-width="0.52"
                stroke-linecap="round"
                stroke-linejoin="round"
                stroke-dasharray="2.08 2.08" />
            <path
                d="M97.4941 12.2563L64.746 91.7171"
                stroke="#00601B"
                stroke-width="0.52"
                stroke-linecap="round"
                stroke-linejoin="round"
                stroke-dasharray="2.08 2.08" />
            <path
                d="M48.3595 130.521L46.7864 129.99L46.2588 124.613L-7.09186 89.0654"
                stroke="#00601B"
                stroke-width="0.52"
                stroke-linecap="round"
                stroke-linejoin="round"
                stroke-dasharray="2.08 2.08" />
            <path
                d="M105.25 150.535C104.683 150.114 79.9534 134.341 69.514 127.681C68.9178 127.298 68.3933 126.782 67.9707 126.163C67.5482 125.544 67.2362 124.834 67.0527 124.075C66.8692 123.315 66.818 122.521 66.9019 121.738C66.9858 120.956 67.2032 120.2 67.5416 119.515L74.5882 105.208"
                stroke="#00601B"
                stroke-width="0.52"
                stroke-linecap="round"
                stroke-linejoin="round"
                stroke-dasharray="2.08 2.08" />
            <path
                d="M-6.85537 62.5388C-6.85537 61.9286 47.2448 7.66042 47.2448 7.66042C47.2448 7.66042 29.5911 -24.9792 8.96392 -39.098L-9.47385 -26.9009"
                stroke="#00601B"
                stroke-width="0.52"
                stroke-linecap="round"
                stroke-linejoin="round"
                stroke-dasharray="2.08 2.08" />
            <path
                d="M112.263 -9.62329L113.402 -8.00386L109.033 6.54826L74.6871 85.5756L58.0394 124.836L98.8944 152.48"
                stroke="#00601B"
                stroke-width="0.52"
                stroke-linecap="round"
                stroke-linejoin="round"
                stroke-dasharray="2.08 2.08" />
            <path
                d="M92.2077 101.342L109.117 112.941"
                stroke="#00601B"
                stroke-width="0.52"
                stroke-linecap="round"
                stroke-linejoin="round"
                stroke-dasharray="2.08 2.08" />
            <path
                d="M113.836 104.376L102.563 127.493"
                stroke="#00601B"
                stroke-width="0.52"
                stroke-linecap="round"
                stroke-linejoin="round"
                stroke-dasharray="2.08 2.08" />
            <path
                d="M98.1743 86.3343C98.1743 86.1119 101.71 78.756 101.71 78.756L105.448 76.2584L137.501 96.5698"
                stroke="#00601B"
                stroke-width="0.52"
                stroke-linecap="round"
                stroke-linejoin="round"
                stroke-dasharray="2.08 2.08" />
            <path
                d="M104.072 60.4119L137.629 81.9378"
                stroke="#00601B"
                stroke-width="0.52"
                stroke-linecap="round"
                stroke-linejoin="round"
                stroke-dasharray="2.08 2.08" />
            <path
                d="M97.2572 105.511L95.5707 109.149C95.2258 109.895 95.1358 110.763 95.3184 111.581C95.5011 112.4 95.9432 113.109 96.557 113.568L101.094 116.99C101.685 117.435 102.106 118.126 102.268 118.92C102.431 119.715 102.323 120.551 101.967 121.255L99.6834 125.765"
                stroke="#00601B"
                stroke-width="0.52"
                stroke-linecap="round"
                stroke-linejoin="round"
                stroke-dasharray="2.08 2.08" />
            <path
                d="M16.479 47.9811L24.083 55.1089L47.8563 69.2048"
                stroke="#00601B"
                stroke-width="0.52"
                stroke-linecap="round"
                stroke-linejoin="round"
                stroke-dasharray="2.08 2.08" />
            <path
                d="M61.4024 55.9122L49.9078 61.4719L47.1562 73.8515"
                stroke="#00601B"
                stroke-width="0.52"
                stroke-linecap="round"
                stroke-linejoin="round"
                stroke-dasharray="2.08 2.08" />
            <path
                d="M16.1732 75.728C15.8478 75.4999 -4.40466 69.6608 -4.40466 69.6608"
                stroke="#00601B"
                stroke-width="0.52"
                stroke-linecap="round"
                stroke-linejoin="round"
                stroke-dasharray="2.08 2.08" />
            <path
                d="M23.1903 40.0259L-6.8309 71.5536"
                stroke="#00601B"
                stroke-width="0.52"
                stroke-linecap="round"
                stroke-linejoin="round"
                stroke-dasharray="2.08 2.08" />
            <path
                d="M66.7085 19.4125V22.5202L54.4347 43.8922C54.4347 43.8922 44.8633 39.5699 44.4688 39.0396C44.0743 38.5093 36.4753 27.6693 36.4753 27.6693L31.2285 28.1255"
                stroke="#00601B"
                stroke-width="0.52"
                stroke-linecap="round"
                stroke-linejoin="round"
                stroke-dasharray="2.08 2.08" />
            <path
                d="M58.7788 43.4363L57.1417 50.0281"
                stroke="#00601B"
                stroke-width="0.52"
                stroke-linecap="round"
                stroke-linejoin="round"
                stroke-dasharray="2.08 2.08" />
            <path
                d="M54.4545 43.8928L58.0592 45.4039"
                stroke="#00601B"
                stroke-width="0.52"
                stroke-linecap="round"
                stroke-linejoin="round"
                stroke-dasharray="2.08 2.08" />
            <path
                d="M72.8081 52.0754L80.1457 53.8944"
                stroke="#00601B"
                stroke-width="0.52"
                stroke-linecap="round"
                stroke-linejoin="round"
                stroke-dasharray="2.08 2.08" />
            <path
                d="M83.6865 24.8634L68.4145 21.3052L66.516 31.2328"
                stroke="#00601B"
                stroke-width="0.52"
                stroke-linecap="round"
                stroke-linejoin="round"
                stroke-dasharray="2.08 2.08" />
            <path
                d="M48.3592 40.6302C48.3592 40.6302 64.4842 24.7153 64.3511 24.4872C64.218 24.2591 51.4363 8.11603 51.4363 8.11603"
                stroke="#00601B"
                stroke-width="0.52"
                stroke-linecap="round"
                stroke-linejoin="round"
                stroke-dasharray="2.08 2.08" />
            <path
                d="M49.9965 13.4194L53.1426 10.3858"
                stroke="#00601B"
                stroke-width="0.52"
                stroke-linecap="round"
                stroke-linejoin="round"
                stroke-dasharray="2.08 2.08" />
            <path
                d="M24.6946 -20.5375L-5.91333 9.32516"
                stroke="#00601B"
                stroke-width="0.52"
                stroke-linecap="round"
                stroke-linejoin="round"
                stroke-dasharray="2.08 2.08" />
            <path
                d="M0.575745 2.65894L3.32736 6.97554L6.53757 3.86782L25.1529 29.7161"
                stroke="#00601B"
                stroke-width="0.52"
                stroke-linecap="round"
                stroke-linejoin="round"
                stroke-dasharray="2.08 2.08" />
            <path
                d="M110.562 36.6162L98.8946 30.0187"
                stroke="#00601B"
                stroke-width="0.52"
                stroke-linecap="round"
                stroke-linejoin="round"
                stroke-dasharray="2.08 2.08" />
            <path
                d="M115.542 10.2377L120.587 5.31099L119.867 3.26389L124.324 -1.05841L122.031 -3.32791L126.686 -7.8783"
                stroke="#00601B"
                stroke-width="0.52"
                stroke-linecap="round"
                stroke-linejoin="round"
                stroke-dasharray="2.08 2.08" />
            <path
                d="M55.199 92.0418L63.2368 94.6705L59.1735 99.9793L51.7669 116.653L49.4739 117.337L-6.70239 81.7094"
                stroke="#00601B"
                stroke-width="0.52"
                stroke-linecap="round"
                stroke-linejoin="round"
                stroke-dasharray="2.08 2.08" />
            <path
                d="M101.902 71.565L103.327 72.3747"
                stroke="#00601B"
                stroke-width="0.52"
                stroke-linecap="round"
                stroke-linejoin="round" />
            <path
                d="M102.312 70.528L103.737 71.3434"
                stroke="#00601B"
                stroke-width="0.52"
                stroke-linecap="round"
                stroke-linejoin="round" />
            <path
                d="M102.721 69.4952L104.146 70.3107"
                stroke="#00601B"
                stroke-width="0.52"
                stroke-linecap="round"
                stroke-linejoin="round" />
            <path
                d="M103.13 68.4635L104.56 69.2732"
                stroke="#00601B"
                stroke-width="0.52"
                stroke-linecap="round"
                stroke-linejoin="round" />
            <path
                d="M103.544 67.4255L104.97 68.241"
                stroke="#00601B"
                stroke-width="0.52"
                stroke-linecap="round"
                stroke-linejoin="round" />
            <path
                d="M103.954 66.3937L105.379 67.2092"
                stroke="#00601B"
                stroke-width="0.52"
                stroke-linecap="round"
                stroke-linejoin="round" />
            <path
                d="M96.7442 11.8344L98.1694 12.6498"
                stroke="#00601B"
                stroke-width="0.52"
                stroke-linecap="round"
                stroke-linejoin="round" />
            <path
                d="M97.1536 10.8026L98.5787 11.618"
                stroke="#00601B"
                stroke-width="0.52"
                stroke-linecap="round"
                stroke-linejoin="round" />
            <path
                d="M97.5677 9.7699L98.9928 10.5853"
                stroke="#00601B"
                stroke-width="0.52"
                stroke-linecap="round"
                stroke-linejoin="round" />
            <path
                d="M97.977 8.73279L99.4021 9.5482"
                stroke="#00601B"
                stroke-width="0.52"
                stroke-linecap="round"
                stroke-linejoin="round" />
            <path
                d="M98.3865 7.70007L99.8116 8.51549"
                stroke="#00601B"
                stroke-width="0.52"
                stroke-linecap="round"
                stroke-linejoin="round" />
            <path
                d="M98.7957 6.66833L100.226 7.48376"
                stroke="#00601B"
                stroke-width="0.52"
                stroke-linecap="round"
                stroke-linejoin="round" />
            <path
                d="M84.2092 64.4543L98.8056 61.7286L106.148 64.0495L137.259 82.9467"
                stroke="#00601B"
                stroke-width="0.52"
                stroke-linecap="round"
                stroke-linejoin="round"
                stroke-dasharray="2.08 2.08" />
            <path
                d="M96.9709 100.333C97.1038 99.9624 97.2691 99.6089 97.4641 99.2776C98.0112 98.2191 98.8932 97.4486 99.9233 97.1292C100.953 96.8099 102.05 96.9669 102.982 97.567L123.639 111.024C124.108 111.33 124.52 111.739 124.852 112.229C125.184 112.719 125.429 113.28 125.573 113.879C125.718 114.479 125.758 115.105 125.693 115.723C125.627 116.341 125.457 116.938 125.192 117.479L124.24 119.418"
                stroke="#00601B"
                stroke-width="0.52"
                stroke-linecap="round"
                stroke-linejoin="round"
                stroke-dasharray="2.08 2.08" />
            <path
                d="M132.086 107.227C131.718 107.999 131.221 108.679 130.625 109.229C130.029 109.778 129.344 110.186 128.611 110.43C127.878 110.673 127.111 110.746 126.353 110.646C125.596 110.545 124.863 110.273 124.196 109.844L105.137 97.6242C104.47 97.1976 103.882 96.6229 103.407 95.9331C102.933 95.2434 102.58 94.452 102.37 93.6044C102.161 92.7569 102.098 91.8697 102.185 90.9939C102.272 90.1181 102.508 89.2708 102.879 88.5006V88.5006C103.248 87.7296 103.745 87.0504 104.342 86.5018C104.939 85.9532 105.623 85.5459 106.356 85.3034C107.088 85.0608 107.855 84.9877 108.613 85.0882C109.37 85.1886 110.103 85.4608 110.769 85.889L129.828 98.1089C130.495 98.5349 131.083 99.109 131.557 99.7983C132.032 100.488 132.384 101.278 132.594 102.126C132.804 102.973 132.867 103.859 132.78 104.735C132.693 105.61 132.457 106.457 132.086 107.227V107.227Z"
                stroke="#00601B"
                stroke-width="0.55"
                stroke-linecap="round"
                stroke-linejoin="round"
                stroke-dasharray="2.22 2.22" />
        </g>
        <!--<path
            d="M70.8063 -46.917C70.7359 -46.8325 70.6807 -46.7326 70.644 -46.6232C70.6073 -46.5138 70.5899 -46.397 70.5926 -46.2797C70.5954 -46.1624 70.6183 -46.0469 70.6601 -45.94C70.7018 -45.833 70.7616 -45.7368 70.8359 -45.6568L83.4795 -31.8289L85.2646 -15.5205L81.6796 3.12585L69.0705 -12.1447L72.0785 -15.5661C72.1507 -15.6479 72.208 -15.7454 72.2472 -15.8532C72.2863 -15.9609 72.3065 -16.0765 72.3065 -16.1933C72.3065 -16.3102 72.2863 -16.4258 72.2472 -16.5335C72.208 -16.6412 72.1507 -16.7388 72.0785 -16.8206C72.0071 -16.9035 71.9221 -16.9693 71.8286 -17.0142C71.7351 -17.0591 71.6349 -17.0822 71.5336 -17.0822C71.4324 -17.0822 71.3321 -17.0591 71.2386 -17.0142C71.1451 -16.9693 71.0602 -16.9035 70.9887 -16.8206L62.8177 -7.55444L45.0062 -29.183C44.8656 -29.3547 44.6718 -29.4547 44.4675 -29.4611C44.2631 -29.4676 44.0649 -29.3798 43.9164 -29.2173C43.768 -29.0547 43.6815 -28.8306 43.6759 -28.5942C43.6704 -28.3579 43.7463 -28.1287 43.8868 -27.9571L61.8808 -6.11177L60.505 -2.69043L46.4313 11.8218L34.3598 -4.71473C34.3351 -4.79042 34.2983 -4.86006 34.2513 -4.92001C34.2022 -4.99593 34.1421 -5.0615 34.0738 -5.11388L25.2223 -17.2426C25.1564 -17.333 25.0757 -17.4073 24.9847 -17.4613C24.8938 -17.5152 24.7944 -17.5476 24.6925 -17.5566C24.5906 -17.5657 24.4881 -17.5511 24.3911 -17.5138C24.2941 -17.4765 24.2045 -17.4173 24.1275 -17.3395L8.68793 -1.94344C8.17537 -1.43268 7.85328 -0.712657 7.78896 0.0662207C7.72464 0.845098 7.92305 1.62259 8.34275 2.23631L14.2602 10.9037C14.6858 11.5257 15.3056 11.9297 15.9861 12.0288C16.6666 12.128 17.3536 11.9144 17.8994 11.434L33.5165 -3.11239L45.2774 13.0021L10.2413 49.1144L6.24699 43.4122L17.5888 32.1902C18.4224 31.3676 18.9458 30.2017 19.048 28.94C19.1502 27.6783 18.8231 26.4203 18.1361 25.433L6.62669 8.78818C6.50517 8.60974 6.32827 8.49314 6.13357 8.46315L-0.794767 7.48807C-0.895141 7.47422 -0.996891 7.48336 -1.09421 7.51498C-1.19153 7.5466 -1.28251 7.60007 -1.36196 7.67235C-1.52241 7.81832 -1.62614 8.03201 -1.65033 8.26642C-1.67453 8.50084 -1.6172 8.73676 -1.49097 8.9223C-1.36474 9.10783 -1.17993 9.22779 -0.977219 9.25576L5.6158 10.1681L8.94436 14.9865L-3.96553 28.1017C-4.35586 28.4905 -4.59916 29.0404 -4.64339 29.634C-4.68763 30.2275 -4.52929 30.8175 -4.20223 31.2778L9.06764 50.3233L-7.03767 66.9225C-7.18945 67.081 -7.28086 67.3024 -7.29195 67.5385C-7.30304 67.7746 -7.2329 68.0062 -7.09684 68.1827C-7.02545 68.2767 -6.93742 68.3518 -6.83873 68.4029C-6.74003 68.4541 -6.63298 68.4801 -6.52482 68.4792C-6.34304 68.4739 -6.1686 68.3953 -6.0317 68.2569L21.5337 39.8369L61.1066 56.3734L59.9971 62.5432C59.9762 62.6578 59.975 62.776 59.9937 62.8911C60.0124 63.0062 60.0505 63.116 60.1059 63.214C60.1614 63.312 60.233 63.3964 60.3167 63.4623C60.4004 63.5282 60.4946 63.5744 60.5938 63.5981C60.6462 63.6038 60.6991 63.6038 60.7516 63.5981C60.9282 63.5975 61.0994 63.527 61.2366 63.3984C61.3738 63.2698 61.4689 63.0908 61.506 62.891L67.098 31.7625C67.1392 31.5311 67.0992 31.2903 66.9869 31.093C66.8745 30.8957 66.699 30.7581 66.4989 30.7105C66.2988 30.6628 66.0905 30.709 65.9199 30.839C65.7493 30.9689 65.6303 31.1719 65.5891 31.4033L61.4222 54.5943L22.875 38.4912L26.9285 34.3171C27.4107 35.199 28.0742 35.9292 28.8598 36.4426C29.6453 36.956 30.5285 37.2366 31.4306 37.2595H31.6723C31.8388 37.2501 31.9981 37.178 32.1259 37.0542L34.8381 34.4768C34.9957 34.3255 35.0949 34.1081 35.1138 33.8723C35.1328 33.6365 35.07 33.4017 34.9392 33.2194C34.8084 33.0372 34.6204 32.9225 34.4165 32.9006C34.2126 32.8787 34.0095 32.9513 33.8519 33.1025L31.3517 35.4804C30.6802 35.4342 30.0295 35.1939 29.4591 34.7815C28.8888 34.369 28.4171 33.7976 28.0873 33.1196L53.335 7.08891L62.1717 18.7044C62.8435 19.5778 63.7843 20.1122 64.7927 20.1932C65.8011 20.2742 66.7968 19.8954 67.5665 19.1377L70.9394 15.7848C71.3292 15.396 71.6477 14.9209 71.8762 14.3875C72.1047 13.8541 72.2385 13.2732 72.2697 12.679C72.301 12.0849 72.2291 11.4895 72.0582 10.928C71.8873 10.3665 71.6209 9.85029 71.2747 9.40973L62.0534 -2.30268L63.4391 -5.76394L67.9708 -10.896L81.2851 5.21858L78.134 21.6182C78.0899 21.8481 78.1264 22.0888 78.2354 22.2876C78.3445 22.4864 78.5173 22.6271 78.7159 22.6788C78.7717 22.6841 78.8278 22.6841 78.8836 22.6788C79.0596 22.6785 79.2302 22.6088 79.3673 22.4813C79.5045 22.3538 79.5999 22.1761 79.6381 21.9775L86.8031 -15.3095C86.8178 -15.4114 86.8178 -15.5155 86.8031 -15.6174L84.9736 -32.3706C84.9531 -32.5752 84.8711 -32.7649 84.7419 -32.9066L71.8911 -46.9512C71.8182 -47.0318 71.7321 -47.0948 71.638 -47.1367C71.5438 -47.1787 71.4434 -47.1986 71.3426 -47.1954C71.2417 -47.1922 71.1424 -47.166 71.0503 -47.1182C70.9583 -47.0704 70.8754 -47.002 70.8063 -46.917V-46.917ZM16.9576 10.0427C16.732 10.2301 16.4528 10.3104 16.1776 10.2669C15.9023 10.2234 15.652 10.0595 15.4782 9.80888L9.56076 1.14148C9.39123 0.889542 9.31114 0.572352 9.33679 0.254517C9.36245 -0.063317 9.49192 -0.357888 9.69883 -0.569195L24.5467 -15.395L32.5303 -4.48664L16.9576 10.0427ZM-2.98915 30.1374C-3.06186 30.033 -3.09726 29.9004 -3.08809 29.7668C-3.07892 29.6332 -3.02588 29.5087 -2.93984 29.4189L9.92073 16.3779L16.9576 26.5279C17.394 27.155 17.6021 27.9541 17.5376 28.7557C17.4732 29.5572 17.1413 30.2983 16.6124 30.8216L5.27061 42.0094L-2.98915 30.1374ZM70.1406 10.6072C70.348 10.8711 70.5077 11.1803 70.6103 11.5166C70.7129 11.8529 70.7563 12.2095 70.7379 12.5655C70.7195 12.9215 70.6397 13.2696 70.5033 13.5894C70.3668 13.9092 70.1764 14.1942 69.9433 14.4277L66.5655 17.7806C66.1042 18.2362 65.5067 18.464 64.9016 18.4149C64.2965 18.3658 63.7323 18.0438 63.3306 17.5183L54.4889 5.90285L61.077 -0.888524L70.1406 10.6072Z"
            fill="white"
            stroke="#B7B2B3"
            stroke-width="0.52"
            stroke-miterlimit="10" />
        <path
            d="M139.483 45.9553L131.662 45.7443L131.83 33.3419L137.2 35.9193C137.293 35.9646 137.393 35.9882 137.494 35.9888C137.595 35.9894 137.696 35.967 137.789 35.9228C137.883 35.8785 137.968 35.8134 138.04 35.7311C138.112 35.6489 138.169 35.551 138.208 35.4432C138.248 35.3353 138.268 35.2196 138.268 35.1027C138.269 34.9857 138.25 34.8698 138.211 34.7615C138.173 34.6532 138.117 34.5547 138.046 34.4716C137.974 34.3885 137.89 34.3224 137.797 34.2771L131.637 31.3176C131.562 31.2818 131.482 31.2625 131.401 31.2606H131.361H130.814L113.609 30.5706C113.467 30.5653 113.327 30.605 113.204 30.6854C113.08 30.7658 112.978 30.8839 112.909 31.0268L107.144 43.1555C107.087 43.2747 107.053 43.4071 107.046 43.5432L106.424 58.9393L102.913 59.3669L87.3997 50.2433L114.181 -15.321L124.384 -9.72713L130.247 -2.44537L116.888 10.1509C116.765 10.2673 116.675 10.4253 116.633 10.603C116.59 10.7808 116.596 10.9695 116.65 11.143C116.704 11.3165 116.804 11.4662 116.935 11.5714C117.066 11.6767 117.222 11.7322 117.381 11.7304C117.561 11.7306 117.735 11.6602 117.875 11.5308L121.706 7.91561L130.789 16.7256C130.927 16.862 131.102 16.9369 131.282 16.9366C131.441 16.9369 131.595 16.8808 131.725 16.7758C131.855 16.6709 131.953 16.5222 132.007 16.35C132.061 16.1779 132.068 15.9907 132.026 15.814C131.985 15.6373 131.897 15.4797 131.776 15.3627L122.899 6.76945L126.208 3.65033L136.12 15.893C136.192 15.9826 136.279 16.0542 136.375 16.1032C136.472 16.1523 136.577 16.1778 136.682 16.1782C136.832 16.1762 136.977 16.1242 137.102 16.0285C137.226 15.9329 137.324 15.7976 137.384 15.639C137.443 15.4804 137.461 15.3054 137.437 15.1349C137.412 14.9645 137.345 14.8059 137.244 14.6785L127.382 2.52699L137.397 -6.88171C137.555 -7.03294 137.655 -7.25067 137.675 -7.48701C137.694 -7.72334 137.631 -7.95892 137.501 -8.14191C137.37 -8.3249 137.182 -8.44032 136.977 -8.46278C136.773 -8.48523 136.569 -8.41289 136.411 -8.26165L131.435 -3.56871L125.414 -11.0615C125.345 -11.1423 125.265 -11.2097 125.178 -11.261L114.822 -16.9234L115.419 -18.3831C115.901 -19.5719 116.034 -20.9108 115.796 -22.1949C115.558 -23.479 114.963 -24.6377 114.102 -25.4938L113.21 -26.3777L124.458 -47.9664C124.51 -48.0667 124.544 -48.1779 124.559 -48.2937C124.574 -48.4095 124.569 -48.5275 124.545 -48.6411C124.52 -48.7547 124.477 -48.8616 124.416 -48.9557C124.356 -49.0498 124.281 -49.1292 124.194 -49.1895C124.107 -49.2498 124.011 -49.2897 123.911 -49.307C123.811 -49.3243 123.709 -49.3186 123.61 -49.2903C123.512 -49.2619 123.42 -49.2115 123.338 -49.1419C123.257 -49.0723 123.188 -48.9848 123.136 -48.8844L112.036 -27.5523L97.7601 -41.6711C97.5018 -41.9274 97.1661 -42.0546 96.8267 -42.0247C96.4873 -41.9947 96.1721 -41.8101 95.9504 -41.5114C95.7287 -41.2127 95.6187 -40.8245 95.6446 -40.432C95.6705 -40.0395 95.8302 -39.675 96.0885 -39.4187L112.45 -23.2357C112.885 -22.8039 113.185 -22.2196 113.305 -21.5719C113.425 -20.9243 113.359 -20.2489 113.116 -19.649L85.0623 48.9889L84.4656 50.4429L53.6555 125.832L48.6898 119.908C48.6024 119.804 48.5028 119.716 48.3939 119.645L38.3786 113.202C38.4782 113.167 38.5706 113.109 38.6503 113.032C38.73 112.954 38.7953 112.859 38.8421 112.751L40.504 108.908C40.5288 108.85 40.5486 108.788 40.5631 108.726L47.8169 74.974C47.8645 74.7426 47.8311 74.4989 47.7239 74.296C47.6168 74.093 47.4446 73.9473 47.2449 73.8905L23.9105 67.6181C23.8076 67.5696 23.697 67.5475 23.586 67.5532C23.4751 67.5589 23.3666 67.5923 23.2679 67.6512C23.1692 67.71 23.0827 67.7928 23.0143 67.8939C22.9459 67.995 22.8972 68.1121 22.8717 68.237C22.8461 68.362 22.8442 68.4918 22.8662 68.6177C22.8881 68.7435 22.9333 68.8624 22.9988 68.9661C23.0642 69.0699 23.1483 69.156 23.2452 69.2186C23.3422 69.2812 23.4497 69.3187 23.5604 69.3287L46.1305 75.3902L39.0887 108.172L37.4663 111.924C37.3831 112.119 37.3638 112.342 37.4121 112.552L19.3836 101.005L26.2873 85.4661C26.5454 84.8938 26.7002 84.2668 26.7423 83.6231C26.7844 82.9795 26.7128 82.3327 26.5321 81.722C26.3513 81.1114 26.065 80.5496 25.6906 80.0708C25.3162 79.592 24.8616 79.2063 24.3543 78.937L17.4062 75.2705C17.3139 75.2191 17.2136 75.1896 17.1113 75.1837C17.009 75.1778 16.9067 75.1955 16.8104 75.2359C16.7141 75.2763 16.6257 75.3385 16.5505 75.419C16.4753 75.4994 16.4147 75.5964 16.3724 75.7042C16.33 75.8121 16.3067 75.9287 16.3038 76.0471C16.3009 76.1655 16.3185 76.2834 16.3556 76.3938C16.3926 76.5043 16.4484 76.605 16.5195 76.6902C16.5907 76.7754 16.6759 76.8433 16.7701 76.8899L23.7132 80.5565C24.0312 80.7237 24.3163 80.9642 24.5512 81.2633C24.786 81.5623 24.9657 81.9136 25.0792 82.2956C25.195 82.6761 25.2416 83.0802 25.2161 83.4825C25.1907 83.8847 25.0937 84.2766 24.9312 84.6336L18.0275 100.121L-6.58902 84.28C-6.88655 84.0887 -7.23761 84.0419 -7.56499 84.1499C-7.89236 84.2579 -8.16922 84.5119 -8.33466 84.8559C-8.5001 85.2 -8.54057 85.606 -8.44717 85.9845C-8.35377 86.3631 -8.13414 86.6832 -7.83661 86.8745L46.9688 122.137L52.4621 128.649L52.5114 128.695L43.2901 151.259C43.1465 151.616 43.1308 152.024 43.2462 152.395C43.3616 152.765 43.5989 153.068 43.9065 153.237C44.0782 153.329 44.2648 153.377 44.4539 153.38C44.6968 153.38 44.9347 153.3 45.1398 153.149C45.345 152.999 45.509 152.784 45.6127 152.53L53.9415 132.156L88.6867 154.48C88.9834 154.651 89.3257 154.683 89.6422 154.569C89.9587 154.456 90.2251 154.205 90.3859 153.87C90.5467 153.535 90.5895 153.141 90.5054 152.77C90.4213 152.4 90.2167 152.081 89.9343 151.88L55.0362 129.465L78.8441 71.1478L88.2922 76.6504L74.7166 103.622C74.6145 103.827 74.5867 104.071 74.6394 104.299C74.6921 104.528 74.8209 104.723 74.9977 104.842C75.115 104.92 75.2474 104.961 75.3824 104.962C75.5173 104.962 75.6499 104.921 75.7667 104.843C75.8836 104.765 75.9806 104.652 76.0481 104.517L82.1726 92.3487L91.9561 98.8493L85.1905 113.071C84.8134 113.863 84.7141 114.793 84.9133 115.667C85.1125 116.542 85.5949 117.295 86.2606 117.769L103.254 129.932C103.608 130.185 104.003 130.351 104.415 130.421C104.827 130.491 105.247 130.463 105.649 130.339C106.051 130.214 106.427 129.996 106.753 129.698C107.08 129.399 107.351 129.027 107.549 128.604L114.452 113.778L122.441 119.092C122.821 119.344 123.153 119.682 123.417 120.086C123.682 120.49 123.873 120.952 123.979 121.443C124.086 121.935 124.105 122.446 124.036 122.947C123.968 123.447 123.813 123.926 123.58 124.355L115.838 138.651C115.804 138.707 115.777 138.768 115.759 138.833L112.13 150.877C112.096 150.989 112.082 151.108 112.088 151.226C112.095 151.345 112.122 151.461 112.168 151.567C112.214 151.673 112.278 151.768 112.356 151.845C112.434 151.923 112.525 151.981 112.623 152.017C112.702 152.05 112.785 152.068 112.869 152.068C113.03 152.069 113.187 152.01 113.318 151.902C113.449 151.793 113.548 151.64 113.599 151.464L117.155 139.535L124.852 125.33C125.195 124.698 125.423 123.992 125.524 123.255C125.625 122.518 125.597 121.765 125.44 121.041C125.284 120.317 125.002 119.637 124.613 119.041C124.224 118.446 123.735 117.947 123.176 117.575L94.0322 98.1536L98.9634 87.804C99.0621 87.5968 99.0856 87.3528 99.0287 87.1255C98.9719 86.8983 98.8393 86.7065 98.6601 86.5923C98.4809 86.4781 98.2699 86.4509 98.0733 86.5167C97.8768 86.5824 97.7109 86.7358 97.6122 86.943L92.681 97.2697L82.932 90.7863L90.0182 76.7074C90.0713 76.6026 90.1052 76.4862 90.1179 76.3656C90.1307 76.245 90.1219 76.1226 90.0921 76.0061C90.0641 75.8846 90.0146 75.7712 89.9467 75.673C89.8788 75.5748 89.794 75.4941 89.6976 75.4359L79.4851 69.4884L86.7093 51.8115L102.41 61.089C102.52 61.1475 102.639 61.1785 102.76 61.1802H102.844L107.208 60.6613L136.302 61.8702H136.327C136.531 61.8755 136.729 61.7869 136.876 61.6238C137.024 61.4607 137.109 61.2365 137.114 61.0006C137.118 60.7647 137.042 60.5363 136.9 60.3658C136.759 60.1952 136.566 60.0964 136.362 60.0911L107.968 58.9107L108.579 43.8682L114.028 32.4067L130.301 33.0283L130.129 45.693L125.064 45.5618C124.862 45.563 124.667 45.6543 124.521 45.8167C124.375 45.9791 124.289 46.2002 124.28 46.4343C124.277 46.5513 124.294 46.6679 124.33 46.7773C124.366 46.8867 124.42 46.9868 124.49 47.0717C124.56 47.1565 124.643 47.2246 124.736 47.2718C124.829 47.319 124.928 47.3444 125.03 47.3466L130.553 47.4949H131.169L139.444 47.7115C139.648 47.7115 139.843 47.6178 139.988 47.451C140.132 47.2842 140.213 47.0579 140.213 46.822C140.213 46.5861 140.132 46.3598 139.988 46.193C139.843 46.0262 139.648 45.9325 139.444 45.9325L139.483 45.9553ZM93.2875 99.7388L113.086 112.905L106.183 127.76C106.088 127.972 105.956 128.16 105.795 128.31C105.635 128.461 105.448 128.57 105.248 128.632C105.049 128.694 104.84 128.706 104.635 128.669C104.431 128.632 104.236 128.545 104.062 128.415L87.0742 116.252C86.744 116.018 86.5049 115.645 86.4066 115.212C86.3083 114.778 86.3584 114.318 86.5466 113.926L93.2875 99.7388Z"
            fill="white"
            stroke="#B7B2B3"
            stroke-width="0.52"
            stroke-miterlimit="10" />
        <path
            d="M21.7978 15.9167L18.8584 18.6691L21.3752 22.263L24.3146 19.5106L21.7978 15.9167Z"
            fill="#E0DFE0" />
        <path
            d="M28.9898 16.9203L26.179 19.8468L28.855 23.2835L31.6658 20.357L28.9898 16.9203Z"
            fill="#E0DFE0" />
        <path
            d="M36.6794 3.28263L33.1321 6.97607L34.9733 9.34065L38.5206 5.64721L36.6794 3.28263Z"
            fill="#E0DFE0" />
        <path
            d="M106.237 60.2114L136.647 80.0666V61.0667L108.027 59.7039L106.237 60.2114Z"
            fill="#E0DFE0" />
        <path
            d="M119.822 13.8748L121.267 11.7536L131.578 19.3319C131.578 19.3319 132.323 17.4159 132.54 17.4615C132.757 17.5072 139.251 21.8123 139.251 21.8123L138.201 26.511L119.822 13.8748Z"
            fill="#E0DFE0" />
        <path
            d="M116.459 33.5306L116.326 41.9186L121.223 42.2722L120.961 49.7991L109.161 49.5996L108.772 57.6853L137.871 59.2021L136.82 50.358L124.936 50.0044L125.197 42.3235L130.489 42.5231L130.528 33.8329L116.459 33.5306Z"
            fill="#E0DFE0" />
        <path
            d="M89.7519 70.2644L92.0745 71.8952L93.6475 69.0156L91.3545 67.4988L89.7519 70.2644Z"
            fill="#E0DFE0" />
        <path
            d="M99.91 64.1283L97.908 68.2966L99.91 69.6196L101.809 65.4512L99.91 64.1283Z"
            fill="#E0DFE0" />
        <path
            d="M20.0639 58.8944L23.5158 63.5987L25.5277 61.4204L22.1153 56.9784L20.0639 58.8944Z"
            fill="#E0DFE0" />
        <path
            d="M71.5408 16.6518L73.0005 18.0431L76.191 14.6332L74.5341 12.9624L71.5408 16.6518Z"
            fill="#E0DFE0" />
        <path
            d="M110.887 8.37749L121.736 -2.61072L123.442 -0.905753L119.31 3.07442L120.03 4.89342L114.659 10.2763L110.887 8.37749Z"
            fill="#E0DFE0" />
        <g style="mix-blend-mode:color">
            <path
                d="M137.604 -93.2992H-5.93814V152.73H137.604V-93.2992Z"
                fill="#E2FFD4" />
        </g>-->
    </g>
    <g>
        <path
            d="M66 51.5C66 54.5376 63.5376 57 60.5 57C57.4624 57 55 54.5376 55 51.5C55 48.4624 57.4624 46 60.5 46C63.5376 46 66 48.4624 66 51.5Z"
            fill="#FF8E24" />
    </g>
    <g>
        <path
            d="M43 67C43 68.6569 41.6569 70 40 70C38.3431 70 37 68.6569 37 67C37 65.3431 38.3431 64 40 64C41.6569 64 43 65.3431 43 67Z"
            fill="#00601B" />
    </g>
    <g>
        <path
            d="M85 67C85 68.6569 83.6569 70 82 70C80.3431 70 79 68.6569 79 67C79 65.3431 80.3431 64 82 64C83.6569 64 85 65.3431 85 67Z"
            fill="#00601B" />
    </g>
    <g>
        <path
            d="M85 35C85 36.6569 83.6569 38 82 38C80.3431 38 79 36.6569 79 35C79 33.3431 80.3431 32 82 32C83.6569 32 85 33.3431 85 35Z"
            fill="#00601B" />
    </g>
    <g>
        <path
            d="M43 35C43 36.6569 41.6569 38 40 38C38.3431 38 37 36.6569 37 35C37 33.3431 38.3431 32 40 32C41.6569 32 43 33.3431 43 35Z"
            fill="#00601B" />
    </g>
    <path
        fill-rule="evenodd"
        clip-rule="evenodd"
        d="M40 35H82.5V67.5H40V35ZM41 36V66.5H81.5V36H41Z"
        fill="#00601B" />
    <defs>
        <filter
            id="filter0_d_781_327"
            x="51"
            y="46"
            width="19"
            height="19"
            filterUnits="userSpaceOnUse"
            color-interpolation-filters="sRGB">
            <feFlood
                flood-opacity="0"
                result="BackgroundImageFix" />
            <feColorMatrix
                in="SourceAlpha"
                type="matrix"
                values="0 0 0 0 0 0 0 0 0 0 0 0 0 0 0 0 0 0 127 0"
                result="hardAlpha" />
            <feOffset dy="4" />
            <feGaussianBlur stdDeviation="2" />
            <feComposite
                in2="hardAlpha"
                operator="out" />
            <feColorMatrix
                type="matrix"
                values="0 0 0 0 1 0 0 0 0 0.556863 0 0 0 0 0.141176 0 0 0 0.45 0" />
            <feBlend
                mode="normal"
                in2="BackgroundImageFix"
                result="effect1_dropShadow_781_327" />
            <feBlend
                mode="normal"
                in="SourceGraphic"
                in2="effect1_dropShadow_781_327"
                result="shape" />
        </filter>
        <filter
            id="filter1_d_781_327"
            x="33"
            y="64"
            width="14"
            height="14"
            filterUnits="userSpaceOnUse"
            color-interpolation-filters="sRGB">
            <feFlood
                flood-opacity="0"
                result="BackgroundImageFix" />
            <feColorMatrix
                in="SourceAlpha"
                type="matrix"
                values="0 0 0 0 0 0 0 0 0 0 0 0 0 0 0 0 0 0 127 0"
                result="hardAlpha" />
            <feOffset dy="4" />
            <feGaussianBlur stdDeviation="2" />
            <feComposite
                in2="hardAlpha"
                operator="out" />
            <feColorMatrix
                type="matrix"
                values="0 0 0 0 0 0 0 0 0 0.375 0 0 0 0 0.105 0 0 0 0.39 0" />
            <feBlend
                mode="normal"
                in2="BackgroundImageFix"
                result="effect1_dropShadow_781_327" />
            <feBlend
                mode="normal"
                in="SourceGraphic"
                in2="effect1_dropShadow_781_327"
                result="shape" />
        </filter>
        <filter
            id="filter2_d_781_327"
            x="75"
            y="64"
            width="14"
            height="14"
            filterUnits="userSpaceOnUse"
            color-interpolation-filters="sRGB">
            <feFlood
                flood-opacity="0"
                result="BackgroundImageFix" />
            <feColorMatrix
                in="SourceAlpha"
                type="matrix"
                values="0 0 0 0 0 0 0 0 0 0 0 0 0 0 0 0 0 0 127 0"
                result="hardAlpha" />
            <feOffset dy="4" />
            <feGaussianBlur stdDeviation="2" />
            <feComposite
                in2="hardAlpha"
                operator="out" />
            <feColorMatrix
                type="matrix"
                values="0 0 0 0 0 0 0 0 0 0.375 0 0 0 0 0.105 0 0 0 0.39 0" />
            <feBlend
                mode="normal"
                in2="BackgroundImageFix"
                result="effect1_dropShadow_781_327" />
            <feBlend
                mode="normal"
                in="SourceGraphic"
                in2="effect1_dropShadow_781_327"
                result="shape" />
        </filter>
        <filter
            id="filter3_d_781_327"
            x="75"
            y="32"
            width="14"
            height="14"
            filterUnits="userSpaceOnUse"
            color-interpolation-filters="sRGB">
            <feFlood
                flood-opacity="0"
                result="BackgroundImageFix" />
            <feColorMatrix
                in="SourceAlpha"
                type="matrix"
                values="0 0 0 0 0 0 0 0 0 0 0 0 0 0 0 0 0 0 127 0"
                result="hardAlpha" />
            <feOffset dy="4" />
            <feGaussianBlur stdDeviation="2" />
            <feComposite
                in2="hardAlpha"
                operator="out" />
            <feColorMatrix
                type="matrix"
                values="0 0 0 0 0 0 0 0 0 0.375 0 0 0 0 0.105 0 0 0 0.39 0" />
            <feBlend
                mode="normal"
                in2="BackgroundImageFix"
                result="effect1_dropShadow_781_327" />
            <feBlend
                mode="normal"
                in="SourceGraphic"
                in2="effect1_dropShadow_781_327"
                result="shape" />
        </filter>
        <filter
            id="filter4_d_781_327"
            x="33"
            y="32"
            width="14"
            height="14"
            filterUnits="userSpaceOnUse"
            color-interpolation-filters="sRGB">
            <feFlood
                flood-opacity="0"
                result="BackgroundImageFix" />
            <feColorMatrix
                in="SourceAlpha"
                type="matrix"
                values="0 0 0 0 0 0 0 0 0 0 0 0 0 0 0 0 0 0 127 0"
                result="hardAlpha" />
            <feOffset dy="4" />
            <feGaussianBlur stdDeviation="2" />
            <feComposite
                in2="hardAlpha"
                operator="out" />
            <feColorMatrix
                type="matrix"
                values="0 0 0 0 0 0 0 0 0 0.375 0 0 0 0 0.105 0 0 0 0.39 0" />
            <feBlend
                mode="normal"
                in2="BackgroundImageFix"
                result="effect1_dropShadow_781_327" />
            <feBlend
                mode="normal"
                in="SourceGraphic"
                in2="effect1_dropShadow_781_327"
                result="shape" />
        </filter>
    </defs>
</svg>
